<?xml version="1.0" ?><!DOCTYPE svg  PUBLIC '-//W3C//DTD SVG 1.1//EN'  'http://www.w3.org/Graphics/SVG/1.1/DTD/svg11.dtd'><svg enable-background="new 0 0 512 512" height="512px" id="Layer_1" version="1.1" viewBox="0 0 512 512" width="512px" xml:space="preserve" xmlns="http://www.w3.org/2000/svg" xmlns:xlink="http://www.w3.org/1999/xlink"><g><g><path d="M328.655,455.706c-34.75,0-63.02-28.271-63.02-63.021c0-34.749,28.271-63.02,63.02-63.02    c18.101,0,35.346,7.797,47.315,21.392c10.127,11.506,15.704,26.289,15.704,41.628s-5.577,30.122-15.704,41.627    C364.001,447.909,346.755,455.706,328.655,455.706z M328.655,349.666c-23.721,0-43.02,19.299-43.02,43.02    c0,23.722,19.299,43.021,43.02,43.021c12.356,0,24.131-5.324,32.304-14.608c6.91-7.851,10.715-17.941,10.715-28.412    c0-10.472-3.806-20.562-10.716-28.412C352.786,354.99,341.011,349.666,328.655,349.666z" fill="#444B54"/></g><g><path d="M356.464,464.386h-240.58c-12.131,0-22-9.869-22-22v-337.76c0-12.131,9.869-22,22-22h64.96    c5.523,0,10,4.478,10,10v11.33c0,1.103,0.897,2,2,2h86.66c1.103,0,2-0.897,2-2v-11.33c0-5.522,4.477-10,10-10h64.96    c12.131,0,22,9.869,22,22v253.04c0,4.16-2.576,7.887-6.468,9.355c-3.893,1.471-8.288,0.375-11.038-2.747    c-8.173-9.284-19.947-14.608-32.304-14.608c-23.721,0-43.02,19.299-43.02,43.02c0,23.722,19.299,43.021,43.02,43.021    c12.356,0,24.13-5.324,32.304-14.608c2.749-3.123,7.142-4.218,11.038-2.747c3.892,1.469,6.468,5.195,6.468,9.355v14.68    C378.464,454.517,368.595,464.386,356.464,464.386z M115.885,102.626c-1.103,0-2,0.897-2,2v337.76c0,1.103,0.897,2,2,2h176.77    c-16.321-11.4-27.02-30.325-27.02-51.7c0-34.749,28.271-63.02,63.02-63.02c10.514,0,20.739,2.631,29.81,7.5v-232.54    c0-1.103-0.897-2-2-2h-54.96v1.33c0,12.131-9.869,22-22,22h-86.66c-12.131,0-22-9.869-22-22v-1.33H115.885z" fill="#444B54"/></g><g><path d="M279.506,125.955h-86.659c-12.131,0-22-9.869-22-22v-22.67c0-12.131,9.869-22,22-22h86.659    c12.131,0,22,9.869,22,22v22.67C301.506,116.086,291.637,125.955,279.506,125.955z M192.847,79.285c-1.103,0-2,0.897-2,2v22.67    c0,1.103,0.897,2,2,2h86.659c1.103,0,2-0.897,2-2v-22.67c0-1.103-0.897-2-2-2H192.847z" fill="#444B54"/></g><g><path d="M236.176,79.285c-17.696,0-32.093-14.396-32.093-32.093S218.48,15.1,236.176,15.1    c17.697,0,32.094,14.396,32.094,32.093S253.873,79.285,236.176,79.285z M236.176,35.1c-6.668,0-12.093,5.425-12.093,12.093    s5.425,12.093,12.093,12.093c6.668,0,12.094-5.425,12.094-12.093S242.845,35.1,236.176,35.1z" fill="#444B54"/></g><g><path d="M147.877,224.338c-0.396,0-0.794-0.023-1.193-0.071c-2.902-0.349-5.507-1.949-7.128-4.382l-14-21    c-3.064-4.595-1.822-10.804,2.773-13.867c4.596-3.063,10.805-1.821,13.867,2.773l7.514,11.271l41.395-38.083    c4.064-3.739,10.39-3.477,14.13,0.589c3.739,4.064,3.476,10.391-0.589,14.13l-50,46    C152.792,223.404,150.371,224.338,147.877,224.338z" fill="#444B54"/></g><g><path d="M184.527,353.338h-45.65c-5.523,0-10-4.478-10-10v-40c0-5.522,4.477-10,10-10h45.65    c5.523,0,10,4.478,10,10v40C194.527,348.86,190.05,353.338,184.527,353.338z M148.877,333.338h25.65v-20h-25.65V333.338z" fill="#444B54"/></g><g><path d="M341.877,192.005h-105.7c-5.523,0-10-4.478-10-10s4.477-10,10-10h105.7c5.523,0,10,4.478,10,10    S347.4,192.005,341.877,192.005z" fill="#444B54"/></g><g><path d="M277.21,229.339h-41.034c-5.523,0-10-4.478-10-10s4.477-10,10-10h41.034c5.523,0,10,4.478,10,10    S282.733,229.339,277.21,229.339z" fill="#444B54"/></g><g><path d="M341.877,314.671h-105.7c-5.523,0-10-4.478-10-10s4.477-10,10-10h105.7c5.523,0,10,4.478,10,10    S347.4,314.671,341.877,314.671z" fill="#444B54"/></g><g><path d="M277.21,352.005h-41.034c-5.523,0-10-4.478-10-10s4.477-10,10-10h41.034c5.523,0,10,4.478,10,10    S282.733,352.005,277.21,352.005z" fill="#444B54"/></g><g><path d="M408.12,496.9c-2.845,0-5.671-1.208-7.649-3.553l-45.278-53.688c-3.561-4.223-3.024-10.531,1.198-14.092    c4.221-3.56,10.53-3.024,14.091,1.197l45.278,53.688c3.561,4.223,3.024,10.531-1.198,14.092    C412.686,496.127,410.397,496.9,408.12,496.9z" fill="#444B54"/></g><g><path d="M381.674,392.686c0,13.42-4.98,25.67-13.21,35.021c-9.72,11.04-23.95,18-39.81,18    c-29.28,0-53.02-23.74-53.02-53.021s23.74-53.02,53.02-53.02c15.86,0,30.09,6.96,39.81,18    C376.694,367.016,381.674,379.266,381.674,392.686z" fill="#D9DCE1"/><path d="M328.655,455.706c-34.75,0-63.02-28.271-63.02-63.021c0-34.749,28.271-63.02,63.02-63.02    c18.101,0,35.346,7.797,47.315,21.392c10.127,11.506,15.704,26.289,15.704,41.628s-5.577,30.122-15.704,41.627    C364.001,447.909,346.755,455.706,328.655,455.706z M328.655,349.666c-23.721,0-43.02,19.299-43.02,43.02    c0,23.722,19.299,43.021,43.02,43.021c12.356,0,24.131-5.324,32.304-14.608c6.91-7.851,10.715-17.941,10.715-28.412    c0-10.472-3.806-20.562-10.716-28.412C352.786,354.99,341.011,349.666,328.655,349.666z" fill="#444B54"/></g><g><path d="M275.635,392.686c0,29.28,23.74,53.021,53.02,53.021c15.86,0,30.09-6.96,39.81-18v14.68    c0,6.62-5.37,12-12,12h-240.58c-6.62,0-12-5.38-12-12v-337.76c0-6.63,5.38-12,12-12h64.96v11.33c0,6.63,5.37,12,12,12h86.66    c6.63,0,12-5.37,12-12v-11.33h64.96c6.63,0,12,5.37,12,12v253.04c-9.72-11.04-23.95-18-39.81-18    C299.375,339.666,275.635,363.405,275.635,392.686z" fill="#65A0D6"/><path d="M356.464,464.386h-240.58c-12.131,0-22-9.869-22-22v-337.76c0-12.131,9.869-22,22-22h64.96    c5.523,0,10,4.478,10,10v11.33c0,1.103,0.897,2,2,2h86.66c1.103,0,2-0.897,2-2v-11.33c0-5.522,4.477-10,10-10h64.96    c12.131,0,22,9.869,22,22v253.04c0,4.16-2.576,7.887-6.468,9.355c-3.893,1.471-8.288,0.375-11.038-2.747    c-8.173-9.284-19.947-14.608-32.304-14.608c-23.721,0-43.02,19.299-43.02,43.02c0,23.722,19.299,43.021,43.02,43.021    c12.356,0,24.13-5.324,32.304-14.608c2.749-3.123,7.142-4.218,11.038-2.747c3.892,1.469,6.468,5.195,6.468,9.355v14.68    C378.464,454.517,368.595,464.386,356.464,464.386z M115.885,102.626c-1.103,0-2,0.897-2,2v337.76c0,1.103,0.897,2,2,2h176.77    c-16.321-11.4-27.02-30.325-27.02-51.7c0-34.749,28.271-63.02,63.02-63.02c10.514,0,20.739,2.631,29.81,7.5v-232.54    c0-1.103-0.897-2-2-2h-54.96v1.33c0,12.131-9.869,22-22,22h-86.66c-12.131,0-22-9.869-22-22v-1.33H115.885z" fill="#444B54"/></g><g><path d="M291.506,81.285v22.67c0,6.631-5.369,12-12,12h-86.659c-6.631,0-12-5.369-12-12v-22.67    c0-6.619,5.369-12,12-12h86.659C286.137,69.285,291.506,74.666,291.506,81.285z" fill="#D9DCE1"/><path d="M279.506,125.955h-86.659c-12.131,0-22-9.869-22-22v-22.67c0-12.131,9.869-22,22-22h86.659    c12.131,0,22,9.869,22,22v22.67C301.506,116.086,291.637,125.955,279.506,125.955z M192.847,79.285c-1.103,0-2,0.897-2,2v22.67    c0,1.103,0.897,2,2,2h86.659c1.103,0,2-0.897,2-2v-22.67c0-1.103-0.897-2-2-2H192.847z" fill="#444B54"/></g><g><path d="M236.176,79.285c-17.696,0-32.093-14.396-32.093-32.093S218.48,15.1,236.176,15.1    c17.697,0,32.094,14.396,32.094,32.093S253.873,79.285,236.176,79.285z M236.176,35.1c-6.668,0-12.093,5.425-12.093,12.093    s5.425,12.093,12.093,12.093c6.668,0,12.094-5.425,12.094-12.093S242.845,35.1,236.176,35.1z" fill="#444B54"/></g><g><path d="M147.877,224.338c-0.396,0-0.794-0.023-1.193-0.071c-2.902-0.349-5.507-1.949-7.128-4.382l-14-21    c-3.064-4.595-1.822-10.804,2.773-13.867c4.596-3.063,10.805-1.821,13.867,2.773l7.514,11.271l41.395-38.083    c4.064-3.739,10.39-3.477,14.13,0.589c3.739,4.064,3.476,10.391-0.589,14.13l-50,46    C152.792,223.404,150.371,224.338,147.877,224.338z" fill="#444B54"/></g><g><path d="M184.527,353.338h-45.65c-5.523,0-10-4.478-10-10v-40c0-5.522,4.477-10,10-10h45.65    c5.523,0,10,4.478,10,10v40C194.527,348.86,190.05,353.338,184.527,353.338z M148.877,333.338h25.65v-20h-25.65V333.338z" fill="#444B54"/></g><g><path d="M341.877,192.005h-105.7c-5.523,0-10-4.478-10-10s4.477-10,10-10h105.7c5.523,0,10,4.478,10,10    S347.4,192.005,341.877,192.005z" fill="#444B54"/></g><g><path d="M277.21,229.339h-41.034c-5.523,0-10-4.478-10-10s4.477-10,10-10h41.034c5.523,0,10,4.478,10,10    S282.733,229.339,277.21,229.339z" fill="#444B54"/></g><g><path d="M341.877,314.671h-105.7c-5.523,0-10-4.478-10-10s4.477-10,10-10h105.7c5.523,0,10,4.478,10,10    S347.4,314.671,341.877,314.671z" fill="#444B54"/></g><g><path d="M277.21,352.005h-41.034c-5.523,0-10-4.478-10-10s4.477-10,10-10h41.034c5.523,0,10,4.478,10,10    S282.733,352.005,277.21,352.005z" fill="#444B54"/></g><g><path d="M408.12,496.9c-2.845,0-5.671-1.208-7.649-3.553l-45.278-53.688c-3.561-4.223-3.024-10.531,1.198-14.092    c4.221-3.56,10.53-3.024,14.091,1.197l45.278,53.688c3.561,4.223,3.024,10.531-1.198,14.092    C412.686,496.127,410.397,496.9,408.12,496.9z" fill="#444B54"/></g></g></svg>