<?xml version="1.0" ?><svg viewBox="0 0 64 64" xmlns="http://www.w3.org/2000/svg"><defs><style>.cls-1{fill:#6e868b;}.cls-2{fill:#93b3ba;}.cls-3{fill:#c4eff8;}.cls-4{fill:#b5b5b5;}.cls-5{fill:#f2f2f2;}.cls-6{fill:#ccc;}.cls-7{fill:none;stroke:#000;stroke-linejoin:round;stroke-width:2px;}</style></defs><title/><g data-name="Layer 7" id="Layer_7"><rect class="cls-1" height="6" width="12" x="15" y="2"/><rect class="cls-2" height="6" width="9" x="15" y="2"/><path class="cls-3" d="M25,8v4l6.54,6.54A5,5,0,0,1,33,22.07V29H31V45h2V60a2,2,0,0,1-2,2H11a2,2,0,0,1-2-2V45h2V29H9V22.07a5,5,0,0,1,1.46-3.53L17,12V8"/><rect class="cls-2" height="16" width="20" x="11" y="29"/><ellipse class="cls-4" cx="21" cy="37" rx="6" ry="4"/><ellipse class="cls-5" cx="19.5" cy="37" rx="4.5" ry="3.87"/><rect class="cls-6" height="30" width="18" x="37" y="32"/><rect class="cls-5" height="30" width="15" x="37" y="32"/><rect class="cls-2" height="20" width="18" x="37" y="38"/><rect class="cls-3" height="20" width="15" x="37" y="38"/><line class="cls-7" x1="11" x2="31" y1="29" y2="29"/><line class="cls-7" x1="11" x2="31" y1="45" y2="45"/><rect class="cls-7" height="6" width="12" x="15" y="2"/><path class="cls-7" d="M25,8v4l6.54,6.54A5,5,0,0,1,33,22.07V29H31V45h2V60a2,2,0,0,1-2,2H11a2,2,0,0,1-2-2V45h2V29H9V22.07a5,5,0,0,1,1.46-3.53L17,12V8"/><ellipse class="cls-7" cx="21" cy="37" rx="6" ry="4"/><rect class="cls-7" height="30" width="18" x="37" y="32"/><line class="cls-7" x1="37" x2="55" y1="58" y2="58"/><line class="cls-7" x1="37" x2="55" y1="38" y2="38"/><line class="cls-7" x1="51" x2="51" y1="41" y2="51"/><line class="cls-7" x1="51" x2="51" y1="53" y2="55"/><polyline class="cls-7" points="51 32 51 26 55 22"/></g></svg>