<?xml version="1.0" ?><!DOCTYPE svg  PUBLIC '-//W3C//DTD SVG 1.1//EN'  'http://www.w3.org/Graphics/SVG/1.1/DTD/svg11.dtd'><svg height="512px" style="enable-background:new 0 0 512 512;" version="1.1" viewBox="0 0 512 512" width="512px" xml:space="preserve" xmlns="http://www.w3.org/2000/svg" xmlns:xlink="http://www.w3.org/1999/xlink"><g id="_x35_82_x2C__Drink_x2C__Alcohal_x2C__Juice_x2C__Romantic_x2C__Couple"><g><polygon points="468.37,439.4 363.27,467.301 404.2,409.561   " style="fill:#415A6B;"/><polygon points="414.451,422.561 457.1,442.393 468.37,439.4 404.2,409.561 363.27,467.301     387.248,460.936   " style="fill:#374E5B;"/><polygon points="107.8,409.561 148.73,467.301 43.63,439.4   " style="fill:#415A6B;"/><polygon points="114.418,420.561 147.278,466.914 148.73,467.301 107.8,409.561 43.63,439.4     62.902,444.516   " style="fill:#374E5B;"/><path d="M221.57,263.5l-6.51,24.529c-10.27,38.701-49.96,61.74-88.66,51.471    c-38.69-10.27-61.73-49.971-51.46-88.66l14.41-54.3l1.83,0.49c-2.8,11.69,20.13,34.64,53.4,52.86    c35.11,19.229,68.45,25.931,74.46,14.96c0.32-0.57,0.55-1.189,0.71-1.83L221.57,263.5z" style="fill:#E42A53;"/><g><path d="M154.851,263.391c24.018,13.154,47.202,20.441,61.381,20.223l5.338-20.113l-1.82-0.48     c-0.16,0.641-0.39,1.26-0.71,1.83c-6.01,10.971-39.35,4.27-74.46-14.96c-17.271-9.458-31.742-20.188-41.287-29.958     C109.481,232.292,129.053,249.262,154.851,263.391z" style="fill:#D62553;"/><path d="M85.211,264.34l13.221-49.819c-5.612-6.882-8.325-13.014-7.252-17.491l-1.83-0.49l-14.41,54.3     c-6.756,25.453,0.907,51.342,17.956,69.002C83.349,303.701,80.021,283.895,85.211,264.34z" style="fill:#D62553;"/></g><path d="M166.34,210.16c33.28,18.22,56.2,41.17,53.41,52.86c-0.16,0.641-0.39,1.26-0.71,1.83    c-6.01,10.971-39.35,4.27-74.46-14.96c-33.27-18.22-56.2-41.17-53.4-52.86c0.15-0.64,0.38-1.25,0.7-1.83    C97.9,184.23,131.23,190.92,166.34,210.16z" style="fill:#EF3E5C;"/><path d="M99.247,211.03c0.15-0.64,0.38-1.25,0.7-1.83c6.02-10.97,39.35-4.28,74.46,14.96    c19.884,10.886,36.064,23.459,45.277,34.311c-2.667-12.456-23.96-32.224-53.344-48.311c-35.11-19.24-68.44-25.93-74.46-14.96    c-0.32,0.58-0.55,1.19-0.7,1.83c-1.127,4.706,1.921,11.239,8.131,18.552C98.958,213.929,98.919,212.399,99.247,211.03z" style="fill:#E42A53;"/><path d="M420.69,196.56c3.56,11.53-19.54,34.86-53.271,53.33c-35.11,19.229-68.45,25.931-74.46,14.96    c-0.32-0.57-0.55-1.189-0.71-1.83c-2.79-11.69,20.13-34.64,53.41-52.86c35.109-19.24,68.45-25.93,74.46-14.96    C420.36,195.63,420.55,196.08,420.69,196.56z" style="fill:#8AD7F8;"/><path d="M303.144,269.635c-2.79-11.689,20.13-34.64,53.41-52.86c25.672-14.068,50.384-21.415,64.171-20.066    c-0.014-0.048-0.02-0.101-0.034-0.149c-0.141-0.48-0.33-0.93-0.57-1.36c-6.01-10.97-39.351-4.28-74.46,14.96    c-33.28,18.22-56.2,41.17-53.41,52.86c0.16,0.641,0.39,1.26,0.71,1.83c1.615,2.947,5.218,4.609,10.283,5.104    C303.212,269.848,303.171,269.744,303.144,269.635z" style="fill:#7ECDE8;"/><path d="M422.52,196.07l14.54,54.77c10.271,38.689-12.77,78.391-51.46,88.66    c-38.699,10.27-78.39-12.77-88.659-51.471L290.43,263.5l1.82-0.48c0.16,0.641,0.39,1.26,0.71,1.83    c6.01,10.971,39.35,4.27,74.46-14.96c33.73-18.47,56.83-41.8,53.271-53.33L422.52,196.07z" style="fill:#55C0EB;"/><g><path d="M383.051,249.792c19.531-10.695,35.484-23.016,44.774-33.735l-5.306-19.987l-1.829,0.49     c3.56,11.53-19.54,34.86-53.271,53.33c-19.174,10.501-37.808,17.255-51.763,19.446     C328.54,272.387,355.232,265.027,383.051,249.792z" style="fill:#4DBADB;"/><path d="M312.571,287.932l-4.731-17.826c-7.503,0.203-12.812-1.479-14.88-5.256     c-0.32-0.57-0.55-1.189-0.71-1.83l-1.82,0.48l6.511,24.529c9.353,35.246,43.11,57.492,78.296,53.426     C346.121,338.463,320.523,317.9,312.571,287.932z" style="fill:#4DBADB;"/></g><path d="M145.046,346.943c-6.694,0-13.399-0.879-19.929-2.611c-20.003-5.309-36.741-18.092-47.132-35.994    c-10.39-17.902-13.188-38.777-7.878-58.781l39.52-148.89c0.34-1.282,1.176-2.376,2.323-3.042s2.511-0.85,3.793-0.508l140.12,37.2    c2.669,0.708,4.258,3.446,3.55,6.115l-39.521,148.88C210.888,323.244,180.11,346.943,145.046,346.943z M118.01,108.065    L79.772,252.123c-4.625,17.422-2.188,35.604,6.862,51.196c9.05,15.592,23.627,26.725,41.048,31.348    c5.692,1.512,11.534,2.277,17.363,2.277c30.535,0,57.338-20.641,65.182-50.195L248.465,142.7L118.01,108.065z" style="fill:#19262D;"/><path d="M148.73,472.301c-0.426,0-0.857-0.055-1.283-0.168l-105.1-27.9    c-2.035-0.539-3.513-2.297-3.698-4.395c-0.185-2.096,0.963-4.084,2.872-4.973l64.17-29.84c2.188-1.018,4.792-0.326,6.188,1.643    l40.703,57.42c0.729,0.869,1.168,1.99,1.168,3.213c0,2.74-2.204,4.965-4.937,5C148.786,472.301,148.758,472.301,148.73,472.301z     M58.261,438.111l78.403,20.813l-30.533-43.072L58.261,438.111z" style="fill:#19262D;"/><path d="M107.803,414.561c-0.425,0-0.856-0.055-1.287-0.168c-2.669-0.709-4.258-3.447-3.549-6.115    l18.6-70.061c0.708-2.67,3.446-4.252,6.116-3.551c2.669,0.709,4.258,3.447,3.549,6.117l-18.6,70.061    C112.038,413.082,110.015,414.561,107.803,414.561z" style="fill:#19262D;"/><path d="M183.983,162.911c-0.425,0-0.856-0.055-1.287-0.169l-78.82-20.93    c-2.669-0.708-4.258-3.447-3.549-6.116c0.709-2.668,3.446-4.257,6.116-3.549l78.82,20.93c2.669,0.708,4.258,3.447,3.549,6.116    C188.218,161.432,186.195,162.911,183.983,162.911z" style="fill:#19262D;"/><path d="M366.958,346.943c-0.001,0-0.003,0-0.005,0c-35.063-0.002-65.842-23.701-74.846-57.631    l-39.52-148.88c-0.708-2.669,0.88-5.407,3.549-6.115l140.12-37.2c1.282-0.341,2.646-0.157,3.793,0.508s1.982,1.76,2.323,3.042    l39.52,148.89c5.31,20.003,2.512,40.878-7.878,58.781c-10.391,17.902-27.129,30.686-47.133,35.994    C380.354,346.064,373.649,346.943,366.958,346.943z M263.535,142.7l38.238,144.048c7.842,29.553,34.646,50.193,65.181,50.195    c0.001,0,0.003,0,0.004,0c5.827,0,11.666-0.766,17.359-2.277c17.421-4.623,31.999-15.756,41.048-31.348    c9.05-15.592,11.486-33.773,6.861-51.196L393.99,108.065L263.535,142.7z" style="fill:#19262D;"/><path d="M363.27,472.301c-1.611,0-3.158-0.781-4.107-2.148c-1.2-1.73-1.189-4.025,0.028-5.744l40.931-57.74    c1.396-1.969,4-2.658,6.188-1.643l64.17,29.84c1.908,0.889,3.057,2.877,2.872,4.973c-0.185,2.098-1.663,3.855-3.697,4.395    l-105.101,27.9C364.127,472.246,363.695,472.301,363.27,472.301z M405.87,415.852l-30.534,43.072l78.403-20.813L405.87,415.852z" style="fill:#19262D;"/><path d="M404.197,414.561c-2.213,0-4.235-1.479-4.83-3.717l-18.601-70.061    c-0.708-2.67,0.881-5.408,3.55-6.117c2.673-0.705,5.407,0.883,6.116,3.551l18.601,70.061c0.708,2.668-0.881,5.406-3.55,6.115    C405.054,414.506,404.621,414.561,404.197,414.561z" style="fill:#19262D;"/><path d="M328.017,162.911c-2.212,0-4.235-1.479-4.83-3.718c-0.708-2.669,0.881-5.407,3.55-6.116    l78.82-20.93c2.667-0.708,5.407,0.88,6.116,3.549c0.708,2.669-0.881,5.407-3.55,6.116l-78.82,20.93    C328.873,162.856,328.441,162.911,328.017,162.911z" style="fill:#19262D;"/><path d="M257.49,68.75c-2.761,0-5-2.239-5-5V44.7c0-2.761,2.239-5,5-5c2.762,0,5,2.239,5,5v19.05    C262.49,66.511,260.252,68.75,257.49,68.75z" style="fill:#19262D;"/><path d="M313.005,100.791c-1.72,0-3.394-0.888-4.323-2.481c-1.392-2.385-0.587-5.447,1.798-6.838    l16.57-9.67c2.387-1.392,5.447-0.587,6.839,1.798c1.392,2.385,0.587,5.447-1.798,6.838l-16.57,9.67    C314.728,100.571,313.86,100.791,313.005,100.791z" style="fill:#19262D;"/><path d="M201.975,100.791c-0.856,0-1.723-0.22-2.516-0.683l-16.569-9.67    c-2.385-1.392-3.19-4.454-1.798-6.839c1.392-2.385,4.453-3.189,6.839-1.798l16.569,9.67c2.385,1.392,3.19,4.454,1.798,6.839    C205.369,99.903,203.695,100.791,201.975,100.791z" style="fill:#19262D;"/><path d="M287.865,79.801c-0.855,0-1.723-0.22-2.515-0.682c-2.386-1.392-3.19-4.454-1.799-6.839l5.8-9.94    c1.392-2.384,4.454-3.19,6.838-1.799c2.386,1.392,3.19,4.454,1.799,6.839l-5.8,9.94C291.26,78.912,289.585,79.801,287.865,79.801z    " style="fill:#19262D;"/><path d="M226.845,79.801c-1.72,0-3.394-0.888-4.324-2.481l-5.8-9.94c-1.392-2.385-0.586-5.447,1.799-6.839    c2.387-1.39,5.447-0.586,6.839,1.799l5.8,9.94c1.392,2.385,0.586,5.447-1.799,6.839C228.567,79.581,227.7,79.801,226.845,79.801z" style="fill:#19262D;"/></g></g><g id="Layer_1"/></svg>