<svg xmlns="http://www.w3.org/2000/svg" width="436.452" height="531.476"><g data-name="Group 1" fill="none"><path data-name="Path 1" d="M36.427 99.434L180.89 254.208h14.176l159.41-154.774z" stroke="#707070" stroke-width="2" opacity=".2"/><path data-name="Path 2" d="M125.492 198.393H255.27" stroke="#707070" stroke-width="2" opacity=".2"/><path data-name="Path 3" d="M181.152 254.358v269.165h41.515v6.952h-66.615v-6.952h25.1" stroke="#707070" stroke-width="2" opacity=".2"/><path data-name="Path 4" d="M194.911 254.358v269.165" stroke="#707070" stroke-width="2" opacity=".2"/><g opacity=".7"><path d="M366.452 32.458a77.927 77.927 0 0 1 38.4 9.92c18.923 10.664 31.6 29.38 31.6 50.657 0 33.456-39.951 61.351-78.61 61.351-6.51 0-38.3-9.375-37.272-13.277 24.254-24.961 39.007-42.099 37.272-43.876-.416-2.527-61.39-1.266-61.39-4.198 0-30.846 26.641-56.307 61.39-60.123a80.189 80.189 0 0 1 8.61-.454z"/><path d="M366.452 33.458c-2.9 0-5.84.155-8.501.448-16.668 1.83-31.988 8.808-43.138 19.648-5.488 5.336-9.776 11.399-12.743 18.02-3.003 6.7-4.555 13.77-4.616 21.018.357.123 1.187.328 3.066.542 1.806.205 4.226.383 7.4.542 5.91.295 13.501.477 20.842.652 7.501.179 14.587.348 20.015.63 8.48.439 9.709.977 9.99 1.842.566.92.036 2.404-1.778 5.088-1.52 2.25-3.969 5.359-7.276 9.238-6.43 7.541-16.132 18.018-28.073 30.316.266.365 1.235 1.304 4.723 2.905 2.828 1.297 6.693 2.746 11.177 4.19 8.444 2.719 17.362 4.85 20.302 4.85 4.696 0 9.51-.421 14.307-1.25a91.494 91.494 0 0 0 13.962-3.578 92.817 92.817 0 0 0 13.127-5.648 86.912 86.912 0 0 0 11.805-7.453c3.684-2.773 7.047-5.797 9.995-8.987 3.01-3.257 5.603-6.704 7.708-10.246 2.167-3.646 3.834-7.425 4.955-11.23 1.162-3.945 1.751-7.97 1.751-11.96 0-5.114-.752-10.196-2.234-15.103-1.437-4.757-3.56-9.356-6.313-13.668-5.42-8.49-13.215-15.757-22.544-21.014a75.469 75.469 0 0 0-17.895-7.237c-6.461-1.695-13.195-2.555-20.014-2.555m0-1c14.072 0 27.174 3.593 38.4 9.92 18.923 10.664 31.6 29.38 31.6 50.657 0 33.456-39.95 61.351-78.61 61.351-6.51 0-38.3-9.375-37.273-13.277 24.255-24.96 39.008-42.099 37.273-43.876-.416-2.527-61.39-1.266-61.39-4.198 0-30.846 26.641-56.307 61.39-60.123a80.186 80.186 0 0 1 8.61-.454z" fill="#c7c72a"/></g><path d="M160.434 207.458L94.997 19.11.434 2.462" stroke="#60867d" stroke-width="5"/></g></svg>